# xmcd
#
# Track frame offsets:
#	150
#	11570
#	23677
#	35297
#	48655
#	59383
#	73411
#	83794
#	95680
#	108270
#	119811
#	132614
#	144129
#	155739
#	170081
#	185154
#	201239
#	215214
#	228065
#	238597
#
# Disc length: 3318 seconds
#
# Revision: 0
# Processed by: cddbd v1.4PL0 Copyright (c) Steve Scherf et al.
# Submitted via: dBpowerAMP V4.0
#
DISCID=2e0cf414
DTITLE=Ray Charles - The Platinum Collection (Disk 2)
DYEAR=1997
DGENRE=Blues
TTITLE0=Confession Blues
TTITLE1=I Love You, I Love You
TTITLE2=What Have I Done?
TTITLE3=Alone In This City
TTITLE4=Th'Ego Song
TTITLE5=Late In The Evening Blues
TTITLE6=Sitting On Top Of The World
TTITLE7=If I Give You My Love
TTITLE8=Rockin' Chair Blues
TTITLE9=Let's Have A Ball
TTITLE10=Can Anyone Ask For More
TTITLE11=Back Home
TTITLE12=Guitar Blues
TTITLE13=Walkin' And Talkin'
TTITLE14=I'm Wondering And Wondering
TTITLE15=Let Me Hear You Call My Name
TTITLE16=Misery In My Heart
TTITLE17=Lonely Boy
TTITLE18=Hey Now
TTITLE19=I Wonder Who's Kissing Her Now?
EXTD=Ray Charles - The Platinum Collection
EXTT0=
EXTT1=
EXTT2=
EXTT3=
EXTT4=
EXTT5=
EXTT6=
EXTT7=
EXTT8=
EXTT9=
EXTT10=
EXTT11=
EXTT12=
EXTT13=
EXTT14=
EXTT15=
EXTT16=
EXTT17=
EXTT18=
EXTT19=
PLAYORDER=
